<?xml version="1.0" encoding="iso-8859-1"?>
<!-- Generator: Adobe Illustrator 18.0.0, SVG Export Plug-In . SVG Version: 6.00 Build 0)  -->
<!DOCTYPE svg PUBLIC "-//W3C//DTD SVG 1.1//EN" "http://www.w3.org/Graphics/SVG/1.1/DTD/svg11.dtd">
<svg version="1.1" id="Capa_1" xmlns="http://www.w3.org/2000/svg" xmlns:xlink="http://www.w3.org/1999/xlink" x="0px" y="0px"
	 viewBox="0 0 383.11 383.11" style="enable-background:new 0 0 383.11 383.11;" xml:space="preserve">
<g>
	<path style="fill:#B4D87D;" d="M340.25,191.55c0,18.35-2.9,36.02-8.28,52.57v0.01c-11.69,36-35.05,66.73-65.62,87.73
		c-25.42,17.48-55.84,28.22-88.66,29.65c-2.51,0.11-5.03,0.17-7.56,0.17c-46.84,0-89.26-18.93-120.03-49.57
		c-1.12-1.11-2.22-2.24-3.32-3.39C17.79,278.22,0,236.97,0,191.55c0-4.78,0.2-9.51,0.59-14.19c4.18-50.69,30.59-95.07,69.45-123.39
		c28.09-20.47,62.68-32.54,100.09-32.54c79.58,0,146.41,54.65,164.98,128.47C338.47,163.23,340.25,177.18,340.25,191.55z"/>
	<path style="fill:#F2F2F2;" d="M383.11,173.1l-3.49,10.78c-1.96,6.04-4.41,11.86-7.33,17.4c-5.38,10.24-12.33,19.53-20.56,27.54
		c-5.95,5.81-12.57,10.95-19.76,15.3v0.01c-0.39,0.24-0.78,0.47-1.17,0.69c-3.07,1.83-6.25,3.49-9.51,5.01
		c-16.38,7.62-33.98,11.39-51.55,11.39c-9.51,0-19.01-1.11-28.29-3.31c0,0.2-44.15,59.31-63.76,103.6
		c-2.51,0.11-5.03,0.17-7.56,0.17c-31.73,0-61.44-8.69-86.86-23.82c-12.11-7.2-23.24-15.87-33.17-25.75
		c-1.12-1.11-2.22-2.24-3.32-3.39C17.79,278.22,0,236.97,0,191.55c0-4.78,0.2-9.51,0.59-14.19c6.3-3.18,13.23-7.19,20.6-11.79
		c55.99-34.96,137.55-103.85,166.35-97.69c20.11,4.3,40.02,9.56,59.66,15.79c13.11,4.16,26.1,8.75,38.95,13.76
		c8.84,3.46,14.66,11.96,14.66,21.45c0,4.42,1.26,8.64,3.51,12.24c2.26,3.59,5.51,6.57,9.49,8.49l21.3,10.29l20.83,10.06
		L383.11,173.1z"/>
	<path style="fill:#666666;" d="M234.75,93.077c0,0-2.434-41.512-39.051-42.15c-29.363-0.512-30.794,27.348-19.895,50.744
		c4.376,9.393,15.783,13.162,25.037,8.498L234.75,93.077z"/>
	<path style="fill:#4D4D4D;" d="M199.458,97.497c-5.502-10.609-8.89-22.429-8.161-29.697c0.371-3.695,1.705-4.695,3.092-5.226
		c1.35-0.516,3.15-0.608,5.351-0.274c7.604,1.156,13.204,6.134,17.622,15.667c1.257,2.714,2.231,5.42,2.965,7.802L199.458,97.497z"
		/>
	<path style="fill:#666666;" d="M263.045,189.953L263.045,189.953c-15.455-4.983-23.944-21.552-18.961-37.007l8.101-25.124
		c1.947-6.037,8.419-9.353,14.456-7.406l0,0c18.653,6.015,28.899,26.012,22.885,44.665l-4.366,13.541
		C282.181,187.858,272.28,192.931,263.045,189.953z"/>
	<circle style="fill:#4D4D4D;" cx="275.691" cy="146.593" r="8.739"/>
	<path style="fill:#666666;" d="M383.11,173.1l-3.49,10.78c-1.96,6.04-4.41,11.86-7.33,17.4l-16.86-22.46
		C369.758,166.642,383.11,173.1,383.11,173.1z"/>
	<path style="fill:#666666;" d="M102.43,274.64c0,23.39-7.05,45.14-19.16,63.22c-12.11-7.2-23.24-15.87-33.17-25.75
		c-1.12-1.11-2.22-2.24-3.32-3.39C17.79,278.22,0,236.97,0,191.55c0-4.78,0.2-9.51,0.59-14.19c6.3-3.18,13.23-7.19,20.6-11.79
		C68.17,179.56,102.43,223.1,102.43,274.64z"/>
</g>
<g>
</g>
<g>
</g>
<g>
</g>
<g>
</g>
<g>
</g>
<g>
</g>
<g>
</g>
<g>
</g>
<g>
</g>
<g>
</g>
<g>
</g>
<g>
</g>
<g>
</g>
<g>
</g>
<g>
</g>
</svg>
